<?xml version="1.0" encoding="UTF-8"?>
<!DOCTYPE svg PUBLIC "-//W3C//DTD SVG 1.1//EN" "http://www.w3.org/Graphics/SVG/1.1/DTD/svg11.dtd">
<!-- Creator: CorelDRAW -->
<svg xmlns="http://www.w3.org/2000/svg" xml:space="preserve" width="661.314mm" height="257.856mm" version="1.1" style="shape-rendering:geometricPrecision; text-rendering:geometricPrecision; image-rendering:optimizeQuality; fill-rule:evenodd; clip-rule:evenodd"
viewBox="0 0 66131.42 25785.61"
 xmlns:xlink="http://www.w3.org/1999/xlink"
 xmlns:xodm="http://www.corel.com/coreldraw/odm/2003">
 <defs>
  <style type="text/css">
   <![CDATA[
    .fil0 {fill:white;fill-rule:nonzero}
   ]]>
  </style>
 </defs>
 <g id="Capa_x0020_1">
  <metadata id="CorelCorpID_0Corel-Layer"/>
  <path class="fil0" d="M8015.18 10756.31l7853.27 0 -3868.8 -7286.54 -3984.47 7286.54zm-8015.18 7147.74l10137.53 -17904.05 4019.16 0 10270.54 17904.05 -4678.41 0 -2151.27 -3920.85 -11357.74 0 -2087.65 3920.85 -4152.16 0z"/>
  <path class="fil0" d="M38980.44 3122.8l-11727.84 0 0 3851.45 11166.9 0c1758.02,0 2937.74,300.71 3556.52,896.36 618.78,601.43 925.27,1711.76 925.27,3342.55l0 2463.54c0,1619.23 -306.49,2735.35 -925.27,3330.99 -618.78,595.65 -1798.5,896.36 -3556.52,896.36l-11062.81 0c-1752.24,0 -2937.75,-300.71 -3550.74,-896.36 -618.78,-595.64 -925.28,-1711.76 -925.28,-3330.99l0 -491.55 3677.97 -763.35 0 2116.57 12664.69 0 0 -4094.34 -11172.69 0c-1740.67,0 -2914.61,-300.72 -3527.6,-896.36 -607.21,-595.65 -913.71,-1705.98 -913.71,-3330.99l0 -1983.56c0,-1625.01 306.5,-2735.34 913.71,-3336.77 612.99,-595.64 1786.93,-896.35 3527.6,-896.35l10166.45 0c1682.85,0 2845.22,289.14 3481.35,861.66 641.91,578.29 959.97,1596.09 959.97,3064.97l0 375.89 -3677.97 867.44 0 -2047.16z"/>
  <path class="fil0" d="M42745.12 17904.05l0 -17904.05 3365.68 0 8443.13 10825.7 8240.72 -10825.7 3336.77 0 0 17904.05 -3851.45 0 0 -11062.81c0,-213.97 11.57,-485.77 40.48,-809.61 28.92,-329.63 69.4,-693.96 109.88,-1104.55 -225.54,462.64 -422.16,844.31 -589.87,1145.03 -173.48,300.71 -323.84,543.6 -456.85,734.43l-6731.37 8946.25 -826.96 0 -6748.72 -8975.16c-248.67,-341.2 -462.64,-659.26 -636.13,-959.97 -173.49,-300.72 -318.06,-589.87 -433.72,-873.23 34.7,375.89 63.61,711.3 80.96,1017.8 17.35,306.5 23.13,595.65 23.13,879.01l0 11062.81 -3365.68 0z"/>
  <path class="fil0" d="M15459.91 25785.61c-408.08,0 -756.44,-74.65 -1045.08,-223.95 -288.64,-149.29 -544.93,-365.77 -768.88,-649.44l477.75 -477.75c164.23,228.93 353.34,401.86 567.33,518.81 213.99,116.95 477.75,175.42 791.27,175.42 308.55,0 556.13,-67.18 742.75,-201.55 186.62,-134.36 279.93,-318.5 279.93,-552.39 0,-194.09 -44.78,-350.85 -134.36,-470.29 -89.58,-119.44 -210.26,-217.72 -362.05,-294.86 -151.78,-77.14 -317.25,-146.81 -496.41,-209.02 -179.15,-62.2 -358.31,-129.39 -537.47,-201.55 -179.15,-72.16 -343.38,-161.73 -492.67,-268.73 -149.3,-107 -269.98,-247.58 -362.05,-421.76 -92.06,-174.18 -138.1,-393.15 -138.1,-656.91 0,-293.61 70.92,-543.69 212.75,-750.21 141.83,-206.53 335.92,-365.78 582.26,-477.75 246.34,-111.97 523.78,-167.96 832.32,-167.96 338.41,0 641.98,65.94 910.71,197.82 268.74,131.88 487.71,304.81 656.91,518.8l-477.75 477.75c-154.27,-179.15 -319.74,-313.52 -496.41,-403.1 -176.67,-89.58 -379.46,-134.37 -608.38,-134.37 -278.69,0 -500.15,60.97 -664.37,182.89 -164.23,121.93 -246.34,292.38 -246.34,511.34 0,174.18 46.03,314.77 138.1,421.77 92.06,106.99 212.74,197.81 362.04,272.46 149.3,74.65 314.77,143.08 496.41,205.29 181.65,62.2 362.05,130.63 541.2,205.28 179.16,74.65 343.38,169.2 492.68,283.66 149.3,114.46 269.98,262.52 362.04,444.16 92.07,181.64 138.1,409.32 138.1,683.03 0,457.84 -158,816.16 -474.01,1074.94 -316.01,258.78 -742.75,388.17 -1280.22,388.17z"/>
  <path id="_1" class="fil0" d="M20543.46 25785.61c-368.26,0 -711.64,-68.43 -1030.14,-205.28 -318.5,-136.86 -597.19,-328.46 -836.07,-574.8 -238.87,-246.34 -424.25,-531.24 -556.12,-854.72 -131.88,-323.48 -197.82,-669.35 -197.82,-1037.61 0,-373.24 65.94,-720.36 197.82,-1041.34 131.87,-320.99 316.01,-603.41 552.39,-847.26 236.39,-243.85 512.59,-432.96 828.6,-567.33 316.01,-134.37 658.15,-201.55 1026.41,-201.55 368.27,0 710.41,67.18 1026.42,201.55 316.01,134.37 593.45,323.48 832.33,567.33 238.87,243.85 425.49,527.51 559.86,850.99 134.36,323.47 201.55,671.83 201.55,1045.07 0,368.27 -67.19,714.14 -201.55,1037.62 -134.37,323.47 -319.75,607.13 -556.13,850.99 -236.39,243.85 -512.59,434.2 -828.6,571.06 -316.01,136.85 -655.66,205.28 -1018.95,205.28zm-14.93 -671.84c373.24,0 700.45,-85.84 981.63,-257.53 281.17,-171.69 503.87,-408.08 668.1,-709.16 164.23,-301.08 246.34,-645.71 246.34,-1033.88 0,-288.64 -47.28,-553.64 -141.83,-795.01 -94.56,-241.36 -226.44,-451.62 -395.64,-630.77 -169.2,-179.16 -368.26,-317.26 -597.18,-414.3 -228.93,-97.04 -482.73,-145.57 -761.42,-145.57 -368.26,0 -692.98,84.61 -974.16,253.81 -281.17,169.2 -502.63,403.1 -664.37,701.69 -161.74,298.6 -242.6,641.98 -242.6,1030.15 0,288.64 46.03,556.13 138.09,802.47 92.07,246.34 221.46,457.84 388.18,634.51 166.71,176.67 365.77,314.77 597.18,414.3 231.41,99.53 483.97,149.29 757.68,149.29z"/>
  <path id="_2" class="fil0" d="M24111.66 25710.96l0 -5180.59 701.69 0 0 5180.59 -701.69 0zm470.28 -2284.24l7.47 -634.51 2694.8 0 7.46 641.98 -2709.73 -7.47zm0 -2254.38l7.47 -641.97 2821.7 0 7.47 641.97 -2836.64 0z"/>
  <path id="_3" class="fil0" d="M29546.05 25710.96l0 -5031.3 694.23 0 7.47 5031.3 -701.7 0zm-1754.23 -4538.62l-7.47 -641.97 4217.63 0 0 641.97 -4210.16 0z"/>
  <polygon id="_4" class="fil0" points="33935.37,25710.96 32240.85,20530.37 32942.55,20530.37 34286.22,24755.46 34084.67,24755.46 35405.94,20530.37 35913.55,20530.37 37234.83,24755.46 37040.74,24755.46 38384.41,20530.37 39078.64,20530.37 37391.59,25710.96 36891.44,25710.96 35562.7,21493.33 35756.79,21493.33 34435.51,25710.96 "/>
  <path id="_5" class="fil0" d="M38921.88 25710.96l2120.01 -5180.59 507.61 0 2112.55 5180.59 -761.42 0 -1739.3 -4381.86 261.27 0 -1754.24 4381.86 -746.48 0zm1007.75 -1171.98l0 -612.11 2724.66 0 0 612.11 -2724.66 0z"/>
  <path id="_6" class="fil0" d="M44908.67 23456.58l0 -589.72 1403.39 0c303.57,0 537.47,-77.14 701.69,-231.41 164.23,-154.27 246.34,-363.29 246.34,-627.05 0,-248.82 -80.87,-455.35 -242.61,-619.58 -161.73,-164.22 -394.39,-246.34 -697.96,-246.34l-1410.85 0 0 -612.11 1433.25 0c328.45,0 614.6,63.45 858.45,190.35 243.85,126.9 431.72,299.84 563.6,518.81 131.88,218.96 197.82,470.28 197.82,753.94 0,293.62 -65.94,549.91 -197.82,768.88 -131.88,218.97 -319.75,389.42 -563.6,511.34 -243.85,121.93 -530,182.89 -858.45,182.89l-1433.25 0zm-470.28 2254.38l0 -5180.59 701.69 0 0 5180.59 -701.69 0zm2985.93 0l-1881.14 -2321.56 664.37 -231.41 2105.08 2552.97 -888.31 0z"/>
  <path id="_7" class="fil0" d="M49036.73 25710.96l0 -5180.59 701.69 0 0 5180.59 -701.69 0zm470.28 0l7.47 -641.98 2963.53 0 7.47 641.98 -2978.47 0zm0 -2343.96l7.47 -612.11 2717.19 0 7.47 612.11 -2732.13 0zm0 -2194.66l7.47 -641.97 2926.21 0 7.46 641.97 -2941.14 0z"/>
 </g>
</svg>
